<svg width="20" height="20" viewBox="0 0 20 20" fill="none" xmlns="http://www.w3.org/2000/svg">
<g clip-path="url(#clip0_1_3455)">
<g clip-path="url(#clip1_1_3455)">
<path d="M17.1129 10.6766H15.5662C15.7238 11.1082 15.81 11.574 15.81 12.0596V17.9053C15.81 18.1077 15.7747 18.302 15.7106 18.4827H18.2677C19.2229 18.4827 20 17.7056 20 16.7504V13.5637C20 11.9717 18.7048 10.6766 17.1129 10.6766Z" fill="white"/>
<path d="M4.19005 12.0596C4.19005 11.574 4.27618 11.1083 4.43384 10.6766H2.88712C1.29516 10.6766 0 11.9718 0 13.5637V16.7505C0 17.7057 0.777072 18.4828 1.73227 18.4828H4.28938C4.22528 18.302 4.19005 18.1077 4.19005 17.9053V12.0596Z" fill="white"/>
<path d="M11.768 9.17248H8.23196C6.64001 9.17248 5.34485 10.4676 5.34485 12.0596V17.9053C5.34485 18.2242 5.60336 18.4827 5.92227 18.4827H14.0777C14.3966 18.4827 14.6551 18.2242 14.6551 17.9053V12.0596C14.6551 10.4676 13.3599 9.17248 11.768 9.17248Z" fill="white"/>
<path d="M10.0001 1.51719C8.08554 1.51719 6.52795 3.07477 6.52795 4.98934C6.52795 6.28798 7.24471 7.42216 8.30323 8.01763C8.8053 8.30005 9.38413 8.46146 10.0001 8.46146C10.616 8.46146 11.1948 8.30005 11.6969 8.01763C12.7555 7.42216 13.4722 6.28794 13.4722 4.98934C13.4722 3.07481 11.9146 1.51719 10.0001 1.51719Z" fill="white"/>
<path d="M3.90308 4.75349C2.47124 4.75349 1.3064 5.91833 1.3064 7.35017C1.3064 8.78201 2.47124 9.94686 3.90308 9.94686C4.26629 9.94686 4.61215 9.87162 4.92633 9.73639C5.46953 9.50252 5.91742 9.08853 6.19457 8.56998C6.3891 8.20603 6.49977 7.79084 6.49977 7.35017C6.49977 5.91837 5.33492 4.75349 3.90308 4.75349Z" fill="white"/>
<path d="M16.0969 4.75349C14.6651 4.75349 13.5002 5.91833 13.5002 7.35017C13.5002 7.79088 13.6109 8.20607 13.8054 8.56998C14.0826 9.08857 14.5305 9.50256 15.0737 9.73639C15.3879 9.87162 15.7337 9.94686 16.0969 9.94686C17.5288 9.94686 18.6936 8.78201 18.6936 7.35017C18.6936 5.91833 17.5288 4.75349 16.0969 4.75349Z" fill="white"/>
</g>
</g>
<defs>
<clipPath id="clip0_1_3455">
<rect width="20" height="20" fill="white"/>
</clipPath>
<clipPath id="clip1_1_3455">
<rect width="20" height="20" fill="white"/>
</clipPath>
</defs>
</svg>
