<svg width="20" height="20" viewBox="0 0 20 20" fill="none" xmlns="http://www.w3.org/2000/svg">
<g clip-path="url(#clip0_1_3453)">
<path d="M19.4605 8.69904C19.4601 8.69858 19.4596 8.69812 19.4592 8.69766L11.3007 0.539551C10.953 0.19165 10.4907 0 9.99886 0C9.50707 0 9.04473 0.191498 8.69683 0.539398L0.542684 8.69339C0.539937 8.69614 0.537191 8.69904 0.534444 8.70178C-0.179667 9.42001 -0.178446 10.5853 0.537954 11.3017C0.865255 11.6292 1.29754 11.8188 1.75972 11.8387C1.77849 11.8405 1.79741 11.8414 1.81649 11.8414H2.14165V17.8453C2.14165 19.0334 3.1083 20 4.29665 20H7.48848C7.81197 20 8.07442 19.7377 8.07442 19.4141V14.707C8.07442 14.1649 8.5154 13.7239 9.05754 13.7239H10.9402C11.4823 13.7239 11.9233 14.1649 11.9233 14.707V19.4141C11.9233 19.7377 12.1856 20 12.5092 20H15.7011C16.8894 20 17.8561 19.0334 17.8561 17.8453V11.8414H18.1576C18.6492 11.8414 19.1116 11.6499 19.4596 11.302C20.1768 10.5844 20.1771 9.41711 19.4605 8.69904Z" fill="white"/>
</g>
<defs>
<clipPath id="clip0_1_3453">
<rect width="20" height="20" fill="white"/>
</clipPath>
</defs>
</svg>
