<svg width="20" height="20" viewBox="0 0 20 20" fill="none" xmlns="http://www.w3.org/2000/svg">
<g clip-path="url(#clip0_1_3479)">
<g clip-path="url(#clip1_1_3479)">
<g clip-path="url(#clip2_1_3479)">
<path d="M17.7083 3.5H2.29172C1.02753 3.5 0 4.52753 0 5.79172V16.2083C0 17.4725 1.02753 18.5 2.29172 18.5H17.7083C18.9725 18.5 20 17.4725 20 16.2083V5.79172C20 4.52753 18.9725 3.5 17.7083 3.5ZM6.25 6.83328C7.39838 6.83328 8.33328 7.76834 8.33328 8.91672C8.33328 10.0649 7.39838 11 6.25 11C5.10162 11 4.16672 10.0649 4.16672 8.91672C4.16672 7.76834 5.10162 6.83328 6.25 6.83328ZM10 14.5417C10 14.8867 9.72 15.1667 9.375 15.1667H3.125C2.78 15.1667 2.5 14.8867 2.5 14.5417V14.125C2.5 12.8608 3.52753 11.8333 4.79172 11.8333H7.70828C8.97247 11.8333 10 12.8608 10 14.125V14.5417ZM16.875 15.1667H12.2917C11.9467 15.1667 11.6667 14.8867 11.6667 14.5417C11.6667 14.1967 11.9467 13.9167 12.2917 13.9167H16.875C17.22 13.9167 17.5 14.1967 17.5 14.5417C17.5 14.8867 17.22 15.1667 16.875 15.1667ZM16.875 11.8333H12.2917C11.9467 11.8333 11.6667 11.5533 11.6667 11.2083C11.6667 10.8633 11.9467 10.5833 12.2917 10.5833H16.875C17.22 10.5833 17.5 10.8633 17.5 11.2083C17.5 11.5533 17.22 11.8333 16.875 11.8333ZM16.875 8.5H12.2917C11.9467 8.5 11.6667 8.22 11.6667 7.875C11.6667 7.53 11.9467 7.25 12.2917 7.25H16.875C17.22 7.25 17.5 7.53 17.5 7.875C17.5 8.22 17.22 8.5 16.875 8.5Z" fill="white"/>
</g>
</g>
</g>
<defs>
<clipPath id="clip0_1_3479">
<rect width="20" height="20" fill="white"/>
</clipPath>
<clipPath id="clip1_1_3479">
<rect width="20" height="20" fill="white" transform="translate(0 1)"/>
</clipPath>
<clipPath id="clip2_1_3479">
<rect width="20" height="20" fill="white" transform="translate(0 1)"/>
</clipPath>
</defs>
</svg>
