<svg width="24" height="25" viewBox="0 0 24 25" fill="none" xmlns="http://www.w3.org/2000/svg">
<circle cx="9" cy="9.5" r="2" stroke="#9DB2CE" stroke-width="1.5"/>
<path d="M13 15.5C13 16.6046 13 17.5 9 17.5C5 17.5 5 16.6046 5 15.5C5 14.3954 6.79086 13.5 9 13.5C11.2091 13.5 13 14.3954 13 15.5Z" stroke="#9DB2CE" stroke-width="1.5"/>
<path d="M2 12.5C2 8.72876 2 6.84315 3.17157 5.67157C4.34315 4.5 6.22876 4.5 10 4.5H14C17.7712 4.5 19.6569 4.5 20.8284 5.67157C22 6.84315 22 8.72876 22 12.5C22 16.2712 22 18.1569 20.8284 19.3284C19.6569 20.5 17.7712 20.5 14 20.5H10C6.22876 20.5 4.34315 20.5 3.17157 19.3284C2 18.1569 2 16.2712 2 12.5Z" stroke="#9DB2CE" stroke-width="1.5"/>
<path d="M19 12.5H15" stroke="#9DB2CE" stroke-width="1.5" stroke-linecap="round"/>
<path d="M19 9.5H14" stroke="#9DB2CE" stroke-width="1.5" stroke-linecap="round"/>
<path d="M19 15.5H16" stroke="#9DB2CE" stroke-width="1.5" stroke-linecap="round"/>
</svg>
