<svg width="24" height="25" viewBox="0 0 24 25" fill="none" xmlns="http://www.w3.org/2000/svg">
<path fill-rule="evenodd" clip-rule="evenodd" d="M12 1.75C9.37665 1.75 7.25 3.87665 7.25 6.5C7.25 9.12335 9.37665 11.25 12 11.25C14.6234 11.25 16.75 9.12335 16.75 6.5C16.75 3.87665 14.6234 1.75 12 1.75ZM8.75 6.5C8.75 4.70507 10.2051 3.25 12 3.25C13.7949 3.25 15.25 4.70507 15.25 6.5C15.25 8.29493 13.7949 9.75 12 9.75C10.2051 9.75 8.75 8.29493 8.75 6.5Z" fill="#9DB2CE"/>
<path d="M18 3.75C17.5858 3.75 17.25 4.08579 17.25 4.5C17.25 4.91421 17.5858 5.25 18 5.25C19.3765 5.25 20.25 6.15573 20.25 7C20.25 7.84427 19.3765 8.75 18 8.75C17.5858 8.75 17.25 9.08579 17.25 9.5C17.25 9.91421 17.5858 10.25 18 10.25C19.9372 10.25 21.75 8.91715 21.75 7C21.75 5.08285 19.9372 3.75 18 3.75Z" fill="#9DB2CE"/>
<path d="M6.75 4.5C6.75 4.08579 6.41421 3.75 6 3.75C4.06278 3.75 2.25 5.08285 2.25 7C2.25 8.91715 4.06278 10.25 6 10.25C6.41421 10.25 6.75 9.91421 6.75 9.5C6.75 9.08579 6.41421 8.75 6 8.75C4.62351 8.75 3.75 7.84427 3.75 7C3.75 6.15573 4.62351 5.25 6 5.25C6.41421 5.25 6.75 4.91421 6.75 4.5Z" fill="#9DB2CE"/>
<path fill-rule="evenodd" clip-rule="evenodd" d="M12 12.75C10.2157 12.75 8.56645 13.2308 7.34133 14.0475C6.12146 14.8608 5.25 16.0666 5.25 17.5C5.25 18.9334 6.12146 20.1392 7.34133 20.9525C8.56645 21.7692 10.2157 22.25 12 22.25C13.7843 22.25 15.4335 21.7692 16.6587 20.9525C17.8785 20.1392 18.75 18.9334 18.75 17.5C18.75 16.0666 17.8785 14.8608 16.6587 14.0475C15.4335 13.2308 13.7843 12.75 12 12.75ZM6.75 17.5C6.75 16.7242 7.22169 15.9301 8.17338 15.2956C9.11984 14.6646 10.4706 14.25 12 14.25C13.5294 14.25 14.8802 14.6646 15.8266 15.2956C16.7783 15.9301 17.25 16.7242 17.25 17.5C17.25 18.2758 16.7783 19.0699 15.8266 19.7044C14.8802 20.3354 13.5294 20.75 12 20.75C10.4706 20.75 9.11984 20.3354 8.17338 19.7044C7.22169 19.0699 6.75 18.2758 6.75 17.5Z" fill="#9DB2CE"/>
<path d="M19.2674 14.3393C19.3561 13.9347 19.7561 13.6787 20.1607 13.7674C21.1225 13.9783 21.9893 14.3593 22.6328 14.8859C23.2758 15.412 23.75 16.1352 23.75 17C23.75 17.8648 23.2758 18.588 22.6328 19.1141C21.9893 19.6407 21.1225 20.0217 20.1607 20.2326C19.7561 20.3213 19.3561 20.0653 19.2674 19.6607C19.1787 19.2561 19.4347 18.8561 19.8393 18.7674C20.6317 18.5936 21.2649 18.2952 21.6829 17.9532C22.1014 17.6108 22.25 17.2763 22.25 17C22.25 16.7237 22.1014 16.3892 21.6829 16.0468C21.2649 15.7048 20.6317 15.4064 19.8393 15.2326C19.4347 15.1439 19.1787 14.7439 19.2674 14.3393Z" fill="#9DB2CE"/>
<path d="M3.83935 13.7674C4.24395 13.6787 4.64387 13.9347 4.73259 14.3393C4.82132 14.7439 4.56525 15.1439 4.16065 15.2326C3.36829 15.4064 2.73505 15.7048 2.31712 16.0468C1.89863 16.3892 1.75 16.7237 1.75 17C1.75 17.2763 1.89863 17.6108 2.31712 17.9532C2.73505 18.2952 3.36829 18.5936 4.16065 18.7674C4.56525 18.8561 4.82132 19.2561 4.73259 19.6607C4.64387 20.0653 4.24395 20.3213 3.83935 20.2326C2.87746 20.0217 2.0107 19.6407 1.36719 19.1141C0.724248 18.588 0.25 17.8648 0.25 17C0.25 16.1352 0.724248 15.412 1.36719 14.8859C2.0107 14.3593 2.87746 13.9783 3.83935 13.7674Z" fill="#9DB2CE"/>
</svg>
