<svg width="25" height="25" viewBox="0 0 25 25" fill="none" xmlns="http://www.w3.org/2000/svg">
<path fill-rule="evenodd" clip-rule="evenodd" d="M21.8333 11.5975V16.5909C21.8333 19.6875 21.8333 21.2358 21.0992 21.9123C20.7491 22.235 20.3072 22.4377 19.8364 22.4915C18.8493 22.6045 17.6966 21.5849 15.3912 19.5458C14.3721 18.6445 13.8626 18.1938 13.273 18.0751C12.9827 18.0166 12.6839 18.0166 12.3936 18.0751C11.8041 18.1938 11.2945 18.6445 10.2755 19.5458C7.97005 21.5849 6.81733 22.6045 5.83023 22.4915C5.35946 22.4377 4.91753 22.235 4.56742 21.9123C3.83331 21.2358 3.83331 19.6875 3.83331 16.5909V11.5975C3.83331 7.30891 3.83331 5.1646 5.15133 3.8323C6.46935 2.5 8.59067 2.5 12.8333 2.5C17.076 2.5 19.1973 2.5 20.5153 3.8323C21.8333 5.1646 21.8333 7.30891 21.8333 11.5975ZM9.08331 6.5C9.08331 6.08579 9.4191 5.75 9.83331 5.75H15.8333C16.2475 5.75 16.5833 6.08579 16.5833 6.5C16.5833 6.91421 16.2475 7.25 15.8333 7.25H9.83331C9.4191 7.25 9.08331 6.91421 9.08331 6.5Z" fill="black"/>
</svg>
